<?xml version="1.0" encoding="UTF-8"?>
<!DOCTYPE svg PUBLIC "-//W3C//DTD SVG 1.1//EN" "http://www.w3.org/Graphics/SVG/1.1/DTD/svg11.dtd">
<svg xmlns="http://www.w3.org/2000/svg" version="1.1" width="45px" height="70px" style="shape-rendering:geometricPrecision; text-rendering:geometricPrecision; image-rendering:optimizeQuality; fill-rule:evenodd; clip-rule:evenodd" xmlns:xlink="http://www.w3.org/1999/xlink">
<g><path style="opacity:0.02" fill="#d2c1b6" d="M 15.5,1.5 C 15.9169,0.876052 16.5836,0.542718 17.5,0.5C 22.3442,1.30119 27.0109,2.30119 31.5,3.5C 27.1434,3.41355 22.81,3.08021 18.5,2.5C 17.609,1.89022 16.609,1.55688 15.5,1.5 Z"/></g>
<g><path style="opacity:0.973" fill="#c29981" d="M 18.5,2.5 C 22.81,3.08021 27.1434,3.41355 31.5,3.5C 32.791,3.26269 33.791,3.59603 34.5,4.5C 31.5,4.5 28.5,4.5 25.5,4.5C 24.1667,4.5 22.8333,4.5 21.5,4.5C 20.8333,4.5 20.1667,4.5 19.5,4.5C 19.1667,3.83333 18.8333,3.16667 18.5,2.5 Z"/></g>
<g><path style="opacity:0.553" fill="#947b6e" d="M 15.5,1.5 C 16.609,1.55688 17.609,1.89022 18.5,2.5C 18.8333,3.16667 19.1667,3.83333 19.5,4.5C 18.5,4.5 17.5,4.5 16.5,4.5C 15.2209,5.96799 13.5542,6.63466 11.5,6.5C 12.5511,5.77765 13.2178,4.77765 13.5,3.5C 14.1667,2.83333 14.8333,2.16667 15.5,1.5 Z"/></g>
<g><path style="opacity:0.012" fill="#d4af99" d="M 34.5,5.5 C 34.5,5.16667 34.5,4.83333 34.5,4.5C 37.8333,5.83333 40.1667,8.16667 41.5,11.5C 40.8333,11.1667 40.1667,10.8333 39.5,10.5C 39.5,9.83333 39.1667,9.5 38.5,9.5C 38.5,8.83333 38.1667,8.5 37.5,8.5C 36.8333,7.16667 35.8333,6.16667 34.5,5.5 Z"/></g>
<g><path style="opacity:1" fill="#68493b" d="M 16.5,4.5 C 17.5,4.5 18.5,4.5 19.5,4.5C 20.1667,4.5 20.8333,4.5 21.5,4.5C 21.5,4.83333 21.5,5.16667 21.5,5.5C 20.8333,5.5 20.5,5.83333 20.5,6.5C 20.5,6.83333 20.5,7.16667 20.5,7.5C 20.1667,7.5 19.8333,7.5 19.5,7.5C 18.5,7.5 17.5,7.5 16.5,7.5C 16.5,6.5 16.5,5.5 16.5,4.5 Z"/></g>
<g><path style="opacity:1" fill="#cd9674" d="M 25.5,4.5 C 28.5,4.5 31.5,4.5 34.5,4.5C 34.5,4.83333 34.5,5.16667 34.5,5.5C 32.8828,6.038 31.2161,6.37133 29.5,6.5C 28.0048,6.01131 26.6715,5.34464 25.5,4.5 Z"/></g>
<g><path style="opacity:0.506" fill="#a78e80" d="M 13.5,3.5 C 13.2178,4.77765 12.5511,5.77765 11.5,6.5C 11.1667,7.16667 10.8333,7.83333 10.5,8.5C 8.88277,9.038 7.2161,9.37133 5.5,9.5C 5.5,9.16667 5.5,8.83333 5.5,8.5C 8.34831,7.157 11.015,5.49034 13.5,3.5 Z"/></g>
<g><path style="opacity:1" fill="#845d4b" d="M 16.5,4.5 C 16.5,5.5 16.5,6.5 16.5,7.5C 14.8007,7.52709 13.4674,8.19376 12.5,9.5C 11.8333,9.16667 11.1667,8.83333 10.5,8.5C 10.8333,7.83333 11.1667,7.16667 11.5,6.5C 13.5542,6.63466 15.2209,5.96799 16.5,4.5 Z"/></g>
<g><path style="opacity:1" fill="#49291c" d="M 20.5,6.5 C 20.5,5.83333 20.8333,5.5 21.5,5.5C 24.7124,5.71244 26.7124,7.37911 27.5,10.5C 26.8333,10.1667 26.1667,9.83333 25.5,9.5C 24.5994,7.2729 22.9328,6.2729 20.5,6.5 Z"/></g>
<g><path style="opacity:0.992" fill="#c5835d" d="M 34.5,5.5 C 35.8333,6.16667 36.8333,7.16667 37.5,8.5C 36.4168,8.53944 35.4168,8.87277 34.5,9.5C 33.3777,8.36977 32.0443,7.70311 30.5,7.5C 30.1667,7.5 29.8333,7.5 29.5,7.5C 29.5,7.16667 29.5,6.83333 29.5,6.5C 31.2161,6.37133 32.8828,6.038 34.5,5.5 Z"/></g>
<g><path style="opacity:1" fill="#744730" d="M 21.5,5.5 C 21.5,5.16667 21.5,4.83333 21.5,4.5C 22.8333,4.5 24.1667,4.5 25.5,4.5C 26.6715,5.34464 28.0048,6.01131 29.5,6.5C 29.5,6.83333 29.5,7.16667 29.5,7.5C 28.8843,8.20222 28.8843,9.20222 29.5,10.5C 29.5,11.1667 29.5,11.8333 29.5,12.5C 28.8333,12.1667 28.1667,11.8333 27.5,11.5C 27.5,11.1667 27.5,10.8333 27.5,10.5C 26.7124,7.37911 24.7124,5.71244 21.5,5.5 Z"/></g>
<g><path style="opacity:1" fill="#673f2d" d="M 16.5,7.5 C 17.5,7.5 18.5,7.5 19.5,7.5C 18.0813,8.45115 16.4147,8.78448 14.5,8.5C 14.7148,10.1788 14.0481,11.1788 12.5,11.5C 12.1667,11.5 11.8333,11.5 11.5,11.5C 11.8333,10.8333 12.1667,10.1667 12.5,9.5C 13.4674,8.19376 14.8007,7.52709 16.5,7.5 Z"/></g>
<g><path style="opacity:1" fill="#542a16" d="M 19.5,7.5 C 19.8333,7.5 20.1667,7.5 20.5,7.5C 23.5239,7.94666 23.8572,8.78 21.5,10C 22.7332,11.6667 24.0665,13.1667 25.5,14.5C 26.625,15.6522 26.625,16.6522 25.5,17.5C 25.1667,16.5 24.5,15.8333 23.5,15.5C 22.343,13.8624 21.1764,12.1957 20,10.5C 19.5357,11.0944 19.369,11.7611 19.5,12.5C 19.1667,12.5 18.8333,12.5 18.5,12.5C 18.5852,11.0047 17.9185,10.0047 16.5,9.5C 15.3744,10.8084 15.3744,12.1417 16.5,13.5C 16.5,13.8333 16.5,14.1667 16.5,14.5C 15.3951,13.3995 14.0618,12.7329 12.5,12.5C 12.5,12.1667 12.5,11.8333 12.5,11.5C 14.0481,11.1788 14.7148,10.1788 14.5,8.5C 16.4147,8.78448 18.0813,8.45115 19.5,7.5 Z"/></g>
<g><path style="opacity:1" fill="#b77146" d="M 30.5,7.5 C 32.0443,7.70311 33.3777,8.36977 34.5,9.5C 35.4168,8.87277 36.4168,8.53944 37.5,8.5C 38.1667,8.5 38.5,8.83333 38.5,9.5C 37.2223,9.78219 36.2223,10.4489 35.5,11.5C 34.791,10.596 33.791,10.2627 32.5,10.5C 31.8333,9.5 31.1667,8.5 30.5,7.5 Z"/></g>
<g><path style="opacity:0.204" fill="#c0aa9c" d="M 5.5,8.5 C 5.5,8.83333 5.5,9.16667 5.5,9.5C 4.44886,10.2223 3.78219,11.2223 3.5,12.5C 2.83333,12.8333 2.16667,13.1667 1.5,13.5C 1.16667,13.5 0.833333,13.5 0.5,13.5C 1.51698,11.0887 3.18365,9.42201 5.5,8.5 Z"/></g>
<g><path style="opacity:1" fill="#643119" d="M 23.5,15.5 C 22.9569,15.56 22.6236,15.8933 22.5,16.5C 23.1925,17.5178 23.8592,18.5178 24.5,19.5C 23.5041,19.5858 22.6708,19.2524 22,18.5C 21.6264,16.5087 20.793,14.842 19.5,13.5C 19.5,13.1667 19.5,12.8333 19.5,12.5C 19.369,11.7611 19.5357,11.0944 20,10.5C 21.1764,12.1957 22.343,13.8624 23.5,15.5 Z"/></g>
<g><path style="opacity:1" fill="#6d361d" d="M 20.5,7.5 C 20.5,7.16667 20.5,6.83333 20.5,6.5C 22.9328,6.2729 24.5994,7.2729 25.5,9.5C 25.1778,10.8582 25.1778,12.5248 25.5,14.5C 24.0665,13.1667 22.7332,11.6667 21.5,10C 23.8572,8.78 23.5239,7.94666 20.5,7.5 Z"/></g>
<g><path style="opacity:1" fill="#482212" d="M 29.5,7.5 C 29.8333,7.5 30.1667,7.5 30.5,7.5C 31.1667,8.5 31.8333,9.5 32.5,10.5C 33.2485,12.3325 34.2485,13.9991 35.5,15.5C 35.5,16.1667 35.1667,16.5 34.5,16.5C 34.1667,15.5 33.5,14.8333 32.5,14.5C 32.2624,12.5956 31.2624,11.2623 29.5,10.5C 28.8843,9.20222 28.8843,8.20222 29.5,7.5 Z"/></g>
<g><path style="opacity:1" fill="#835b4a" d="M 10.5,8.5 C 11.1667,8.83333 11.8333,9.16667 12.5,9.5C 12.1667,10.1667 11.8333,10.8333 11.5,11.5C 9.06725,11.2729 7.40058,12.2729 6.5,14.5C 5.73209,13.7375 5.23209,12.7375 5,11.5C 4.61742,12.056 4.11742,12.3893 3.5,12.5C 3.78219,11.2223 4.44886,10.2223 5.5,9.5C 7.2161,9.37133 8.88277,9.038 10.5,8.5 Z"/></g>
<g><path style="opacity:1" fill="#432012" d="M 18.5,12.5 C 17.8333,12.8333 17.1667,13.1667 16.5,13.5C 15.3744,12.1417 15.3744,10.8084 16.5,9.5C 17.9185,10.0047 18.5852,11.0047 18.5,12.5 Z"/></g>
<g><path style="opacity:1" fill="#8b4b27" d="M 32.5,10.5 C 33.791,10.2627 34.791,10.596 35.5,11.5C 35.8333,12.1667 36.1667,12.8333 36.5,13.5C 36.8333,14.1667 37.1667,14.8333 37.5,15.5C 36.8333,15.5 36.1667,15.5 35.5,15.5C 34.2485,13.9991 33.2485,12.3325 32.5,10.5 Z"/></g>
<g><path style="opacity:1" fill="#b87246" d="M 38.5,9.5 C 39.1667,9.5 39.5,9.83333 39.5,10.5C 39.5,11.1667 39.5,11.8333 39.5,12.5C 38.8826,12.3893 38.3826,12.056 38,11.5C 37.7216,12.4158 37.2216,13.0825 36.5,13.5C 36.1667,12.8333 35.8333,12.1667 35.5,11.5C 36.2223,10.4489 37.2223,9.78219 38.5,9.5 Z"/></g>
<g><path style="opacity:1" fill="#643c29" d="M 11.5,11.5 C 11.8333,11.5 12.1667,11.5 12.5,11.5C 12.5,11.8333 12.5,12.1667 12.5,12.5C 11.8333,12.5 11.1667,12.5 10.5,12.5C 9.5,12.8333 8.83333,13.5 8.5,14.5C 7.83333,14.8333 7.16667,15.1667 6.5,15.5C 6.5,15.1667 6.5,14.8333 6.5,14.5C 7.40058,12.2729 9.06725,11.2729 11.5,11.5 Z"/></g>
<g><path style="opacity:1" fill="#904d2a" d="M 27.5,11.5 C 28.1667,11.8333 28.8333,12.1667 29.5,12.5C 30.1157,13.7978 30.1157,14.7978 29.5,15.5C 27.1939,14.625 26.5272,13.2916 27.5,11.5 Z"/></g>
<g><path style="opacity:1" fill="#844726" d="M 29.5,10.5 C 31.2624,11.2623 32.2624,12.5956 32.5,14.5C 31.8333,15.1667 31.1667,15.8333 30.5,16.5C 30.1667,16.5 29.8333,16.5 29.5,16.5C 29.5,16.1667 29.5,15.8333 29.5,15.5C 30.1157,14.7978 30.1157,13.7978 29.5,12.5C 29.5,11.8333 29.5,11.1667 29.5,10.5 Z"/></g>
<g><path style="opacity:1" fill="#38170d" d="M 10.5,12.5 C 11.4839,14.4799 12.8173,16.1466 14.5,17.5C 13.9569,17.56 13.6236,17.8933 13.5,18.5C 14.1925,19.5178 14.8592,20.5178 15.5,21.5C 14.391,21.4431 13.391,21.1098 12.5,20.5C 12.5,19.8333 12.1667,19.5 11.5,19.5C 10.5,18.8333 9.5,18.1667 8.5,17.5C 8.5,16.5 8.5,15.5 8.5,14.5C 8.83333,13.5 9.5,12.8333 10.5,12.5 Z"/></g>
<g><path style="opacity:0.502" fill="#c0b5ae" d="M 0.5,13.5 C 0.833333,13.5 1.16667,13.5 1.5,13.5C 1.5,16.8333 1.5,20.1667 1.5,23.5C 0.833333,23.5 0.166667,23.5 -0.5,23.5C -0.5,22.1667 -0.5,20.8333 -0.5,19.5C 0.833333,19.1667 0.833333,18.8333 -0.5,18.5C -0.5,17.1667 -0.5,15.8333 -0.5,14.5C 0.166667,14.5 0.5,14.1667 0.5,13.5 Z"/></g>
<g><path style="opacity:1" fill="#7a4c38" d="M 6.5,14.5 C 6.5,14.8333 6.5,15.1667 6.5,15.5C 5.16667,15.5 4.5,16.1667 4.5,17.5C 3.83333,17.8333 3.16667,18.1667 2.5,18.5C 2.83333,16.5 3.16667,14.5 3.5,12.5C 4.11742,12.3893 4.61742,12.056 5,11.5C 5.23209,12.7375 5.73209,13.7375 6.5,14.5 Z"/></g>
<g><path style="opacity:1" fill="#60321b" d="M 8.5,14.5 C 8.5,15.5 8.5,16.5 8.5,17.5C 8.5,18.1667 8.5,18.8333 8.5,19.5C 8.56544,19.9382 8.39877,20.2716 8,20.5C 7.08529,19.6721 6.41862,18.6721 6,17.5C 5.61742,18.056 5.11742,18.3893 4.5,18.5C 4.5,18.1667 4.5,17.8333 4.5,17.5C 4.5,16.1667 5.16667,15.5 6.5,15.5C 7.16667,15.1667 7.83333,14.8333 8.5,14.5 Z"/></g>
<g><path style="opacity:1" fill="#512615" d="M 10.5,12.5 C 11.1667,12.5 11.8333,12.5 12.5,12.5C 14.0618,12.7329 15.3951,13.3995 16.5,14.5C 17.4013,15.2905 18.0679,16.2905 18.5,17.5C 17.5084,17.3284 16.8417,17.6618 16.5,18.5C 15.8333,18.1667 15.1667,17.8333 14.5,17.5C 12.8173,16.1466 11.4839,14.4799 10.5,12.5 Z"/></g>
<g><path style="opacity:1" fill="#451e0e" d="M 18.5,12.5 C 18.8333,12.5 19.1667,12.5 19.5,12.5C 19.5,12.8333 19.5,13.1667 19.5,13.5C 19.5,14.8333 19.5,16.1667 19.5,17.5C 19.1667,17.5 18.8333,17.5 18.5,17.5C 18.0679,16.2905 17.4013,15.2905 16.5,14.5C 16.5,14.1667 16.5,13.8333 16.5,13.5C 17.1667,13.1667 17.8333,12.8333 18.5,12.5 Z"/></g>
<g><path style="opacity:1" fill="#4c2312" d="M 19.5,13.5 C 20.793,14.842 21.6264,16.5087 22,18.5C 22.6708,19.2524 23.5041,19.5858 24.5,19.5C 25.1667,19.5 25.5,19.8333 25.5,20.5C 24.8333,20.5 24.1667,20.5 23.5,20.5C 21.368,20.4456 20.0347,19.4456 19.5,17.5C 19.5,16.1667 19.5,14.8333 19.5,13.5 Z"/></g>
<g><path style="opacity:1" fill="#70371b" d="M 25.5,9.5 C 26.1667,9.83333 26.8333,10.1667 27.5,10.5C 27.5,10.8333 27.5,11.1667 27.5,11.5C 26.5272,13.2916 27.1939,14.625 29.5,15.5C 29.5,15.8333 29.5,16.1667 29.5,16.5C 29.5,17.1667 29.5,17.8333 29.5,18.5C 29.5,19.1667 29.5,19.8333 29.5,20.5C 28.1283,19.4884 26.795,18.4884 25.5,17.5C 26.625,16.6522 26.625,15.6522 25.5,14.5C 25.1778,12.5248 25.1778,10.8582 25.5,9.5 Z"/></g>
<g><path style="opacity:0.349" fill="#c28963" d="M 39.5,10.5 C 40.1667,10.8333 40.8333,11.1667 41.5,11.5C 42.9395,13.588 43.6061,15.9214 43.5,18.5C 42.7281,17.3065 41.7281,16.3065 40.5,15.5C 39.8902,14.609 39.5569,13.609 39.5,12.5C 39.5,11.8333 39.5,11.1667 39.5,10.5 Z"/></g>
<g><path style="opacity:1" fill="#562714" d="M 18.5,17.5 C 18.8333,17.5 19.1667,17.5 19.5,17.5C 20.0347,19.4456 21.368,20.4456 23.5,20.5C 24.5063,21.3957 24.5063,22.0623 23.5,22.5C 22.609,21.8902 21.609,21.5569 20.5,21.5C 18.7697,20.9744 17.4363,19.9744 16.5,18.5C 16.8417,17.6618 17.5084,17.3284 18.5,17.5 Z"/></g>
<g><path style="opacity:1" fill="#7b4021" d="M 32.5,14.5 C 33.5,14.8333 34.1667,15.5 34.5,16.5C 35.1098,17.391 35.4431,18.391 35.5,19.5C 34.3951,18.3995 33.0618,17.7329 31.5,17.5C 30.8333,17.5 30.5,17.1667 30.5,16.5C 31.1667,15.8333 31.8333,15.1667 32.5,14.5 Z"/></g>
<g><path style="opacity:1" fill="#9c5931" d="M 39.5,12.5 C 39.5569,13.609 39.8902,14.609 40.5,15.5C 39.8333,16.5 39.1667,17.5 38.5,18.5C 38.4431,17.391 38.1098,16.391 37.5,15.5C 37.1667,14.8333 36.8333,14.1667 36.5,13.5C 37.2216,13.0825 37.7216,12.4158 38,11.5C 38.3826,12.056 38.8826,12.3893 39.5,12.5 Z"/></g>
<g><path style="opacity:1" fill="#411b0d" d="M 29.5,16.5 C 29.8333,16.5 30.1667,16.5 30.5,16.5C 30.5,17.1667 30.8333,17.5 31.5,17.5C 32.1667,18.5 32.8333,19.5 33.5,20.5C 33.44,21.0431 33.1067,21.3764 32.5,21.5C 31.7124,20.2299 30.7124,19.2299 29.5,18.5C 29.5,17.8333 29.5,17.1667 29.5,16.5 Z"/></g>
<g><path style="opacity:1" fill="#854623" d="M 40.5,15.5 C 41.038,17.1172 41.3713,18.7839 41.5,20.5C 40.0755,18.9689 39.4088,19.3023 39.5,21.5C 39.1667,21.5 38.8333,21.5 38.5,21.5C 38.5,20.5 38.5,19.5 38.5,18.5C 39.1667,17.5 39.8333,16.5 40.5,15.5 Z"/></g>
<g><path style="opacity:0.925" fill="#906d5c" d="M 3.5,12.5 C 3.16667,14.5 2.83333,16.5 2.5,18.5C 2.5,21.1667 2.5,23.8333 2.5,26.5C 2.5,27.1667 2.5,27.8333 2.5,28.5C 1.54885,27.0813 1.21552,25.4147 1.5,23.5C 1.5,20.1667 1.5,16.8333 1.5,13.5C 2.16667,13.1667 2.83333,12.8333 3.5,12.5 Z"/></g>
<g><path style="opacity:1" fill="#1c0a04" d="M 14.5,17.5 C 15.1667,17.8333 15.8333,18.1667 16.5,18.5C 17.4363,19.9744 18.7697,20.9744 20.5,21.5C 22.0311,22.9245 21.6977,23.5912 19.5,23.5C 19.1667,23.5 18.8333,23.5 18.5,23.5C 17.7095,22.5987 16.7095,21.9321 15.5,21.5C 14.8592,20.5178 14.1925,19.5178 13.5,18.5C 13.6236,17.8933 13.9569,17.56 14.5,17.5 Z"/></g>
<g><path style="opacity:1" fill="#7e4224" d="M 23.5,15.5 C 24.5,15.8333 25.1667,16.5 25.5,17.5C 26.795,18.4884 28.1283,19.4884 29.5,20.5C 29.1583,21.3382 28.4916,21.6716 27.5,21.5C 26.8333,21.1667 26.1667,20.8333 25.5,20.5C 25.5,19.8333 25.1667,19.5 24.5,19.5C 23.8592,18.5178 23.1925,17.5178 22.5,16.5C 22.6236,15.8933 22.9569,15.56 23.5,15.5 Z"/></g>
<g><path style="opacity:0.984" fill="#ad693e" d="M 40.5,15.5 C 41.7281,16.3065 42.7281,17.3065 43.5,18.5C 43.5,19.1667 43.5,19.8333 43.5,20.5C 42.6043,21.5063 41.9377,21.5063 41.5,20.5C 41.3713,18.7839 41.038,17.1172 40.5,15.5 Z"/></g>
<g><path style="opacity:1" fill="#6d3920" d="M 4.5,17.5 C 4.5,17.8333 4.5,18.1667 4.5,18.5C 4.5,19.1667 4.5,19.8333 4.5,20.5C 4.5,22.8333 4.5,25.1667 4.5,27.5C 3.83333,27.1667 3.16667,26.8333 2.5,26.5C 2.5,23.8333 2.5,21.1667 2.5,18.5C 3.16667,18.1667 3.83333,17.8333 4.5,17.5 Z"/></g>
<g><path style="opacity:1" fill="#5b2c15" d="M 8.5,19.5 C 9.40397,20.209 9.73731,21.209 9.5,22.5C 8.21297,21.2317 7.21297,21.565 6.5,23.5C 5.82434,22.3984 5.15767,21.3984 4.5,20.5C 4.5,19.8333 4.5,19.1667 4.5,18.5C 5.11742,18.3893 5.61742,18.056 6,17.5C 6.41862,18.6721 7.08529,19.6721 8,20.5C 8.39877,20.2716 8.56544,19.9382 8.5,19.5 Z"/></g>
<g><path style="opacity:1" fill="#552612" d="M 8.5,17.5 C 9.5,18.1667 10.5,18.8333 11.5,19.5C 11.7148,21.1788 11.0481,22.1788 9.5,22.5C 9.73731,21.209 9.40397,20.209 8.5,19.5C 8.5,18.8333 8.5,18.1667 8.5,17.5 Z"/></g>
<g><path style="opacity:1" fill="#461f12" d="M 23.5,20.5 C 24.1667,20.5 24.8333,20.5 25.5,20.5C 26.1667,20.8333 26.8333,21.1667 27.5,21.5C 27.8333,22.1667 28.1667,22.8333 28.5,23.5C 27.3395,23.4366 26.0062,23.7699 24.5,24.5C 24.1667,23.8333 23.8333,23.1667 23.5,22.5C 24.5063,22.0623 24.5063,21.3957 23.5,20.5 Z"/></g>
<g><path style="opacity:1" fill="#602e18" d="M 29.5,18.5 C 30.7124,19.2299 31.7124,20.2299 32.5,21.5C 33.1067,21.3764 33.44,21.0431 33.5,20.5C 33.8356,21.6714 33.8356,22.6714 33.5,23.5C 33.5,24.1667 33.5,24.8333 33.5,25.5C 32.1667,25.5 30.8333,25.5 29.5,25.5C 29.6716,24.5084 29.3382,23.8417 28.5,23.5C 28.1667,22.8333 27.8333,22.1667 27.5,21.5C 28.4916,21.6716 29.1583,21.3382 29.5,20.5C 29.5,19.8333 29.5,19.1667 29.5,18.5 Z"/></g>
<g><path style="opacity:0.996" fill="#9b5935" d="M 41.5,20.5 C 41.9377,21.5063 42.6043,21.5063 43.5,20.5C 43.8799,22.698 43.2132,24.3646 41.5,25.5C 40.8333,24.1667 40.1667,22.8333 39.5,21.5C 39.4088,19.3023 40.0755,18.9689 41.5,20.5 Z"/></g>
<g><path style="opacity:0.122" fill="#a98a7b" d="M 43.5,18.5 C 43.8333,18.5 44.1667,18.5 44.5,18.5C 44.5,21.1667 44.5,23.8333 44.5,26.5C 43.5,26.8333 42.8333,27.5 42.5,28.5C 42.1667,28.5 41.8333,28.5 41.5,28.5C 41.5,27.8333 41.5,27.1667 41.5,26.5C 41.5,26.1667 41.5,25.8333 41.5,25.5C 43.2132,24.3646 43.8799,22.698 43.5,20.5C 43.5,19.8333 43.5,19.1667 43.5,18.5 Z"/></g>
<g><path style="opacity:1" fill="#693115" d="M 31.5,17.5 C 33.0618,17.7329 34.3951,18.3995 35.5,19.5C 35.8432,21.4832 35.1765,22.8166 33.5,23.5C 33.8356,22.6714 33.8356,21.6714 33.5,20.5C 32.8333,19.5 32.1667,18.5 31.5,17.5 Z"/></g>
<g><path style="opacity:1" fill="#6a3217" d="M 35.5,15.5 C 36.1667,15.5 36.8333,15.5 37.5,15.5C 38.1098,16.391 38.4431,17.391 38.5,18.5C 38.5,19.5 38.5,20.5 38.5,21.5C 38.5,22.5 38.5,23.5 38.5,24.5C 37.8333,24.5 37.5,24.8333 37.5,25.5C 36.6618,25.8417 36.3284,26.5084 36.5,27.5C 36.1667,27.5 35.8333,27.5 35.5,27.5C 35.5,27.1667 35.5,26.8333 35.5,26.5C 35.1583,25.6618 34.4916,25.3284 33.5,25.5C 33.5,24.8333 33.5,24.1667 33.5,23.5C 35.1765,22.8166 35.8432,21.4832 35.5,19.5C 35.4431,18.391 35.1098,17.391 34.5,16.5C 35.1667,16.5 35.5,16.1667 35.5,15.5 Z"/></g>
<g><path style="opacity:1" fill="#502512" d="M 11.5,19.5 C 12.1667,19.5 12.5,19.8333 12.5,20.5C 12.5,21.1667 12.5,21.8333 12.5,22.5C 12.5594,24.7645 11.7261,25.0978 10,23.5C 8.34684,23.8198 7.34684,24.8198 7,26.5C 5.89318,25.2881 5.39318,25.6214 5.5,27.5C 5.16667,27.5 4.83333,27.5 4.5,27.5C 4.5,25.1667 4.5,22.8333 4.5,20.5C 5.15767,21.3984 5.82434,22.3984 6.5,23.5C 7.21297,21.565 8.21297,21.2317 9.5,22.5C 11.0481,22.1788 11.7148,21.1788 11.5,19.5 Z"/></g>
<g><path style="opacity:1" fill="#39190e" d="M 20.5,21.5 C 21.609,21.5569 22.609,21.8902 23.5,22.5C 23.8333,23.1667 24.1667,23.8333 24.5,24.5C 23.1667,24.5 21.8333,24.5 20.5,24.5C 19.8333,24.5 19.5,24.1667 19.5,23.5C 21.6977,23.5912 22.0311,22.9245 20.5,21.5 Z"/></g>
<g><path style="opacity:1" fill="#914d29" d="M 38.5,21.5 C 38.8333,21.5 39.1667,21.5 39.5,21.5C 40.1667,22.8333 40.8333,24.1667 41.5,25.5C 41.5,25.8333 41.5,26.1667 41.5,26.5C 40.2223,26.2178 39.2223,25.5511 38.5,24.5C 38.5,23.5 38.5,22.5 38.5,21.5 Z"/></g>
<g><path style="opacity:1" fill="#3c1c0e" d="M 12.5,20.5 C 13.391,21.1098 14.391,21.4431 15.5,21.5C 16.7095,21.9321 17.7095,22.5987 18.5,23.5C 16.4508,23.7058 16.1175,24.5391 17.5,26C 16.9056,26.4643 16.2389,26.631 15.5,26.5C 15.1667,26.5 14.8333,26.5 14.5,26.5C 14.7709,24.6203 14.1042,23.287 12.5,22.5C 12.5,21.8333 12.5,21.1667 12.5,20.5 Z"/></g>
<g><path style="opacity:1" fill="#5c301e" d="M 28.5,23.5 C 29.3382,23.8417 29.6716,24.5084 29.5,25.5C 29.5,25.8333 29.5,26.1667 29.5,26.5C 28.2921,27.2341 26.9587,27.5674 25.5,27.5C 23.8333,26.8333 22.1667,26.1667 20.5,25.5C 20.5,25.1667 20.5,24.8333 20.5,24.5C 21.8333,24.5 23.1667,24.5 24.5,24.5C 26.0062,23.7699 27.3395,23.4366 28.5,23.5 Z"/></g>
<g><path style="opacity:1" fill="#975531" d="M 38.5,24.5 C 39.2223,25.5511 40.2223,26.2178 41.5,26.5C 41.5,27.1667 41.5,27.8333 41.5,28.5C 41.5,28.8333 41.5,29.1667 41.5,29.5C 40.391,29.5569 39.391,29.8902 38.5,30.5C 37.962,28.8828 37.6287,27.2161 37.5,25.5C 37.5,24.8333 37.8333,24.5 38.5,24.5 Z"/></g>
<g><path style="opacity:1" fill="#3e1c0f" d="M 12.5,22.5 C 14.1042,23.287 14.7709,24.6203 14.5,26.5C 9.63794,25.791 7.63794,28.1243 8.5,33.5C 7.83333,33.5 7.5,33.1667 7.5,32.5C 7.10746,30.7162 6.4408,29.0495 5.5,27.5C 5.39318,25.6214 5.89318,25.2881 7,26.5C 7.34684,24.8198 8.34684,23.8198 10,23.5C 11.7261,25.0978 12.5594,24.7645 12.5,22.5 Z"/></g>
<g><path style="opacity:1" fill="#6b3c2b" d="M 18.5,23.5 C 18.8333,23.5 19.1667,23.5 19.5,23.5C 19.5,24.1667 19.8333,24.5 20.5,24.5C 20.5,24.8333 20.5,25.1667 20.5,25.5C 19.6618,25.8417 19.3284,26.5084 19.5,27.5C 19.1667,27.5 18.8333,27.5 18.5,27.5C 17.5,27.5 16.5,27.5 15.5,27.5C 15.5,27.1667 15.5,26.8333 15.5,26.5C 16.2389,26.631 16.9056,26.4643 17.5,26C 16.1175,24.5391 16.4508,23.7058 18.5,23.5 Z"/></g>
<g><path style="opacity:1" fill="#9f6349" d="M 29.5,25.5 C 30.8333,25.5 32.1667,25.5 33.5,25.5C 34.4916,25.3284 35.1583,25.6618 35.5,26.5C 33.8008,26.3398 32.1341,26.5065 30.5,27C 31.2524,27.6708 31.5858,28.5041 31.5,29.5C 31.1667,29.5 30.8333,29.5 30.5,29.5C 29.8902,28.609 29.5569,27.609 29.5,26.5C 29.5,26.1667 29.5,25.8333 29.5,25.5 Z"/></g>
<g><path style="opacity:1" fill="#cf9377" d="M 35.5,26.5 C 35.5,26.8333 35.5,27.1667 35.5,27.5C 35.1667,27.5 34.8333,27.5 34.5,27.5C 33.5987,28.2905 32.9321,29.2905 32.5,30.5C 31.8333,30.5 31.5,30.1667 31.5,29.5C 31.5858,28.5041 31.2524,27.6708 30.5,27C 32.1341,26.5065 33.8008,26.3398 35.5,26.5 Z"/></g>
<g><path style="opacity:0.95" fill="#5c3421" d="M 2.5,26.5 C 3.16667,26.8333 3.83333,27.1667 4.5,27.5C 4.83333,27.5 5.16667,27.5 5.5,27.5C 6.4408,29.0495 7.10746,30.7162 7.5,32.5C 6.83333,32.1667 6.16667,31.8333 5.5,31.5C 4.83333,31.5 4.16667,31.5 3.5,31.5C 2.89022,30.609 2.55688,29.609 2.5,28.5C 2.5,27.8333 2.5,27.1667 2.5,26.5 Z"/></g>
<g><path style="opacity:1" fill="#693d2e" d="M 14.5,26.5 C 14.8333,26.5 15.1667,26.5 15.5,26.5C 15.5,26.8333 15.5,27.1667 15.5,27.5C 13.2143,27.595 11.2143,28.2616 9.5,29.5C 9.5,29.8333 9.5,30.1667 9.5,30.5C 9.73731,31.791 9.40397,32.791 8.5,33.5C 7.63794,28.1243 9.63794,25.791 14.5,26.5 Z"/></g>
<g><path style="opacity:1" fill="#c7876c" d="M 20.5,25.5 C 22.1667,26.1667 23.8333,26.8333 25.5,27.5C 25.8333,28.1667 26.1667,28.8333 26.5,29.5C 25.8333,29.5 25.5,29.8333 25.5,30.5C 24.5178,29.8592 23.5178,29.1925 22.5,28.5C 21.5258,30.7427 21.1924,33.076 21.5,35.5C 21.1667,35.5 20.8333,35.5 20.5,35.5C 20.5,34.1667 20.5,32.8333 20.5,31.5C 20.1667,30.1667 19.8333,28.8333 19.5,27.5C 19.3284,26.5084 19.6618,25.8417 20.5,25.5 Z"/></g>
<g><path style="opacity:1" fill="#905c4a" d="M 15.5,27.5 C 16.5,27.5 17.5,27.5 18.5,27.5C 17.0484,28.3019 15.3817,28.8019 13.5,29C 15.3817,29.1981 17.0484,29.6981 18.5,30.5C 16.901,30.2322 15.5676,30.5655 14.5,31.5C 13.8333,31.8333 13.1667,32.1667 12.5,32.5C 12.5,31.5 12.5,30.5 12.5,29.5C 11.5,29.5 10.5,29.5 9.5,29.5C 11.2143,28.2616 13.2143,27.595 15.5,27.5 Z"/></g>
<g><path style="opacity:1" fill="#b6735c" d="M 18.5,27.5 C 18.8333,27.5 19.1667,27.5 19.5,27.5C 19.8333,28.8333 20.1667,30.1667 20.5,31.5C 19.5084,31.6716 18.8417,31.3382 18.5,30.5C 17.0484,29.6981 15.3817,29.1981 13.5,29C 15.3817,28.8019 17.0484,28.3019 18.5,27.5 Z"/></g>
<g><path style="opacity:1" fill="#814f3e" d="M 29.5,26.5 C 29.5569,27.609 29.8902,28.609 30.5,29.5C 29.1667,29.5 27.8333,29.5 26.5,29.5C 26.1667,28.8333 25.8333,28.1667 25.5,27.5C 26.9587,27.5674 28.2921,27.2341 29.5,26.5 Z"/></g>
<g><path style="opacity:1" fill="#9e7d70" d="M 26.5,29.5 C 27.8333,29.5 29.1667,29.5 30.5,29.5C 30.8333,29.5 31.1667,29.5 31.5,29.5C 31.5,30.1667 31.8333,30.5 32.5,30.5C 32.5,30.8333 32.5,31.1667 32.5,31.5C 32.5,31.8333 32.5,32.1667 32.5,32.5C 30.8401,30.7516 28.8401,30.2516 26.5,31C 27.4158,31.2784 28.0825,31.7784 28.5,32.5C 27.1667,32.5 26.5,33.1667 26.5,34.5C 26.1667,34.5 25.8333,34.5 25.5,34.5C 25.5,33.1667 25.5,31.8333 25.5,30.5C 25.5,29.8333 25.8333,29.5 26.5,29.5 Z"/></g>
<g><path style="opacity:1" fill="#67341e" d="M 37.5,25.5 C 37.6287,27.2161 37.962,28.8828 38.5,30.5C 38.7373,31.791 38.404,32.791 37.5,33.5C 37.6716,32.5084 37.3382,31.8417 36.5,31.5C 36.5,30.1667 36.5,28.8333 36.5,27.5C 36.3284,26.5084 36.6618,25.8417 37.5,25.5 Z"/></g>
<g><path style="opacity:1" fill="#e0a589" d="M 25.5,30.5 C 25.5,31.8333 25.5,33.1667 25.5,34.5C 22.08,35.7452 21.7466,37.4119 24.5,39.5C 24.5,39.8333 24.5,40.1667 24.5,40.5C 23.8333,40.5 23.1667,40.5 22.5,40.5C 22.5,39.8333 22.1667,39.5 21.5,39.5C 21.5,38.1667 21.5,36.8333 21.5,35.5C 21.1924,33.076 21.5258,30.7427 22.5,28.5C 23.5178,29.1925 24.5178,29.8592 25.5,30.5 Z"/></g>
<g><path style="opacity:1" fill="#b0a5a1" d="M 14.5,31.5 C 15.2389,31.369 15.9056,31.5357 16.5,32C 15.6634,33.0113 15.33,34.1779 15.5,35.5C 15.1583,36.3382 14.4916,36.6716 13.5,36.5C 12.5655,35.4324 12.2322,34.099 12.5,32.5C 13.1667,32.1667 13.8333,31.8333 14.5,31.5 Z"/></g>
<g><path style="opacity:1" fill="#977b71" d="M 14.5,31.5 C 15.5676,30.5655 16.901,30.2322 18.5,30.5C 18.8417,31.3382 19.5084,31.6716 20.5,31.5C 20.5,32.8333 20.5,34.1667 20.5,35.5C 20.1667,35.5 19.8333,35.5 19.5,35.5C 18.5,32.8333 17.5,32.8333 16.5,35.5C 16.1667,35.5 15.8333,35.5 15.5,35.5C 15.33,34.1779 15.6634,33.0113 16.5,32C 15.9056,31.5357 15.2389,31.369 14.5,31.5 Z"/></g>
<g><path style="opacity:1" fill="#f1cdb0" d="M 34.5,27.5 C 34.8333,27.5 35.1667,27.5 35.5,27.5C 35.8333,27.5 36.1667,27.5 36.5,27.5C 36.5,28.8333 36.5,30.1667 36.5,31.5C 36.5,33.8333 36.5,36.1667 36.5,38.5C 34.9519,38.1788 34.2852,37.1788 34.5,35.5C 34.5,32.8333 34.5,30.1667 34.5,27.5 Z"/></g>
<g><path style="opacity:1" fill="#624b41" d="M 28.5,32.5 C 29.8333,33.5 29.8333,34.5 28.5,35.5C 27.5084,35.6716 26.8417,35.3382 26.5,34.5C 26.5,33.1667 27.1667,32.5 28.5,32.5 Z"/></g>
<g><path style="opacity:1" fill="#e3d5cc" d="M 32.5,32.5 C 32.5,33.8333 32.5,35.1667 32.5,36.5C 30.901,36.7678 29.5676,36.4345 28.5,35.5C 29.8333,34.5 29.8333,33.5 28.5,32.5C 28.0825,31.7784 27.4158,31.2784 26.5,31C 28.8401,30.2516 30.8401,30.7516 32.5,32.5 Z"/></g>
<g><path style="opacity:1" fill="#ebbc9f" d="M 34.5,27.5 C 34.5,30.1667 34.5,32.8333 34.5,35.5C 34.1667,35.5 33.8333,35.5 33.5,35.5C 33.7678,33.901 33.4345,32.5676 32.5,31.5C 32.5,31.1667 32.5,30.8333 32.5,30.5C 32.9321,29.2905 33.5987,28.2905 34.5,27.5 Z"/></g>
<g><path style="opacity:1" fill="#bb8f87" d="M 9.5,30.5 C 10.1667,34.5 10.8333,38.5 11.5,42.5C 11.5,42.8333 11.5,43.1667 11.5,43.5C 11.5569,44.609 11.8902,45.609 12.5,46.5C 10.5,46.5 9.5,45.5 9.5,43.5C 9.03714,40.5176 8.70381,37.5176 8.5,34.5C 8.5,34.1667 8.5,33.8333 8.5,33.5C 9.40397,32.791 9.73731,31.791 9.5,30.5 Z"/></g>
<g><path style="opacity:1" fill="#b77c6e" d="M 9.5,30.5 C 9.5,30.1667 9.5,29.8333 9.5,29.5C 10.5,29.5 11.5,29.5 12.5,29.5C 12.5,30.5 12.5,31.5 12.5,32.5C 11.5386,34.2646 11.2053,36.2646 11.5,38.5C 11.5,39.8333 11.5,41.1667 11.5,42.5C 10.8333,38.5 10.1667,34.5 9.5,30.5 Z"/></g>
<g><path style="opacity:1" fill="#4a332a" d="M 19.5,35.5 C 18.5,35.5 17.5,35.5 16.5,35.5C 17.5,32.8333 18.5,32.8333 19.5,35.5 Z"/></g>
<g><path style="opacity:1" fill="#e5a083" d="M 41.5,29.5 C 42.355,30.5307 43.0217,31.6974 43.5,33C 42.5705,34.0769 41.9038,35.2436 41.5,36.5C 39.5956,36.2624 38.2623,35.2624 37.5,33.5C 38.404,32.791 38.7373,31.791 38.5,30.5C 39.391,29.8902 40.391,29.5569 41.5,29.5 Z"/></g>
<g><path style="opacity:1" fill="#984a3d" d="M 5.5,31.5 C 6.16667,31.8333 6.83333,32.1667 7.5,32.5C 7.5,33.1667 7.83333,33.5 8.5,33.5C 8.5,33.8333 8.5,34.1667 8.5,34.5C 8.06029,36.8439 7.06029,38.8439 5.5,40.5C 5.5,39.8333 5.5,39.1667 5.5,38.5C 5.42082,37.0695 5.75415,35.7362 6.5,34.5C 6.04311,33.7025 5.37644,33.3691 4.5,33.5C 4.83333,32.8333 5.16667,32.1667 5.5,31.5 Z"/></g>
<g><path style="opacity:1" fill="#f3c7ab" d="M 33.5,35.5 C 33.8333,35.5 34.1667,35.5 34.5,35.5C 34.2852,37.1788 34.9519,38.1788 36.5,38.5C 36.8333,38.5 37.1667,38.5 37.5,38.5C 36.1667,39.8333 36.1667,41.1667 37.5,42.5C 37.1667,43.5 36.5,44.1667 35.5,44.5C 35.6085,42.4862 34.9418,40.8195 33.5,39.5C 33.5,38.8333 33.5,38.1667 33.5,37.5C 33.5,36.8333 33.5,36.1667 33.5,35.5 Z"/></g>
<g><path style="opacity:1" fill="#f0c2a6" d="M 36.5,31.5 C 37.3382,31.8417 37.6716,32.5084 37.5,33.5C 38.2623,35.2624 39.5956,36.2624 41.5,36.5C 41.5,36.8333 41.5,37.1667 41.5,37.5C 40.7659,38.7079 40.4326,40.0413 40.5,41.5C 39.2719,40.6935 38.2719,39.6935 37.5,38.5C 37.1667,38.5 36.8333,38.5 36.5,38.5C 36.5,36.1667 36.5,33.8333 36.5,31.5 Z"/></g>
<g><path style="opacity:0.89" fill="#f0cbb3" d="M 41.5,28.5 C 41.8333,28.5 42.1667,28.5 42.5,28.5C 43.1667,29.1667 43.8333,29.8333 44.5,30.5C 44.5,32.1667 44.5,33.8333 44.5,35.5C 43.5,36.1667 42.5,36.8333 41.5,37.5C 41.5,37.1667 41.5,36.8333 41.5,36.5C 41.9038,35.2436 42.5705,34.0769 43.5,33C 43.0217,31.6974 42.355,30.5307 41.5,29.5C 41.5,29.1667 41.5,28.8333 41.5,28.5 Z"/></g>
<g><path style="opacity:0.996" fill="#a75145" d="M 4.5,33.5 C 5.37644,33.3691 6.04311,33.7025 6.5,34.5C 5.75415,35.7362 5.42082,37.0695 5.5,38.5C 3.40309,37.1214 3.06975,35.4547 4.5,33.5 Z"/></g>
<g><path style="opacity:1" fill="#b99d94" d="M 15.5,35.5 C 15.8333,35.5 16.1667,35.5 16.5,35.5C 17.5,35.5 18.5,35.5 19.5,35.5C 18.4479,37.256 16.7812,37.9227 14.5,37.5C 13.8333,37.5 13.5,37.1667 13.5,36.5C 14.4916,36.6716 15.1583,36.3382 15.5,35.5 Z"/></g>
<g><path style="opacity:1" fill="#e1b9a4" d="M 32.5,31.5 C 33.4345,32.5676 33.7678,33.901 33.5,35.5C 33.5,36.1667 33.5,36.8333 33.5,37.5C 31.5,37.5 29.5,37.5 27.5,37.5C 26.0937,37.0269 25.427,36.0269 25.5,34.5C 25.8333,34.5 26.1667,34.5 26.5,34.5C 26.8417,35.3382 27.5084,35.6716 28.5,35.5C 29.5676,36.4345 30.901,36.7678 32.5,36.5C 32.5,35.1667 32.5,33.8333 32.5,32.5C 32.5,32.1667 32.5,31.8333 32.5,31.5 Z"/></g>
<g><path style="opacity:1" fill="#9a5f52" d="M 12.5,32.5 C 12.2322,34.099 12.5655,35.4324 13.5,36.5C 13.5,37.1667 13.8333,37.5 14.5,37.5C 14.5,37.8333 14.5,38.1667 14.5,38.5C 13.5,38.5 12.5,38.5 11.5,38.5C 11.2053,36.2646 11.5386,34.2646 12.5,32.5 Z"/></g>
<g><path style="opacity:1" fill="#f1c2a6" d="M 25.5,34.5 C 25.427,36.0269 26.0937,37.0269 27.5,37.5C 27.1788,39.0481 26.1788,39.7148 24.5,39.5C 21.7466,37.4119 22.08,35.7452 25.5,34.5 Z"/></g>
<g><path style="opacity:1" fill="#edb398" d="M 27.5,37.5 C 29.5,37.5 31.5,37.5 33.5,37.5C 33.5,38.1667 33.5,38.8333 33.5,39.5C 32.8333,39.5 32.1667,39.5 31.5,39.5C 30.209,39.2627 29.209,39.596 28.5,40.5C 27.1667,41.8333 25.8333,41.8333 24.5,40.5C 24.5,40.1667 24.5,39.8333 24.5,39.5C 26.1788,39.7148 27.1788,39.0481 27.5,37.5 Z"/></g>
<g><path style="opacity:0.373" fill="#ebd0c1" d="M 44.5,35.5 C 44.5,36.5 44.5,37.5 44.5,38.5C 43.7638,40.2294 42.4305,41.2294 40.5,41.5C 40.4326,40.0413 40.7659,38.7079 41.5,37.5C 42.5,36.8333 43.5,36.1667 44.5,35.5 Z"/></g>
<g><path style="opacity:0.451" fill="#ac7369" d="M 3.5,31.5 C 4.16667,31.5 4.83333,31.5 5.5,31.5C 5.16667,32.1667 4.83333,32.8333 4.5,33.5C 3.06975,35.4547 3.40309,37.1214 5.5,38.5C 5.5,39.1667 5.5,39.8333 5.5,40.5C 6.69354,41.2719 7.69354,42.2719 8.5,43.5C 5.85167,43.2615 4.01834,41.9282 3,39.5C 2.19927,36.633 2.36594,33.9664 3.5,31.5 Z"/></g>
<g><path style="opacity:1" fill="#db8e73" d="M 15.5,38.5 C 17.099,38.2322 18.4324,38.5655 19.5,39.5C 18.6618,39.8417 18.3284,40.5084 18.5,41.5C 17.5,41.5 16.5,41.5 15.5,41.5C 15.5,40.5 15.5,39.5 15.5,38.5 Z"/></g>
<g><path style="opacity:1" fill="#d4927b" d="M 19.5,35.5 C 19.8333,35.5 20.1667,35.5 20.5,35.5C 20.8333,35.5 21.1667,35.5 21.5,35.5C 21.5,36.8333 21.5,38.1667 21.5,39.5C 20.8333,39.5 20.1667,39.5 19.5,39.5C 18.4324,38.5655 17.099,38.2322 15.5,38.5C 15.1667,38.5 14.8333,38.5 14.5,38.5C 14.5,38.1667 14.5,37.8333 14.5,37.5C 16.7812,37.9227 18.4479,37.256 19.5,35.5 Z"/></g>
<g><path style="opacity:1" fill="#c06b5c" d="M 11.5,38.5 C 12.5,38.5 13.5,38.5 14.5,38.5C 14.8333,38.5 15.1667,38.5 15.5,38.5C 15.5,39.5 15.5,40.5 15.5,41.5C 15.5,42.1667 15.5,42.8333 15.5,43.5C 14.3478,42.375 13.3478,42.375 12.5,43.5C 12.1667,43.5 11.8333,43.5 11.5,43.5C 11.5,43.1667 11.5,42.8333 11.5,42.5C 11.5,41.1667 11.5,39.8333 11.5,38.5 Z"/></g>
<g><path style="opacity:1" fill="#cf866d" d="M 31.5,39.5 C 31.5,39.8333 31.5,40.1667 31.5,40.5C 31.6716,41.4916 31.3382,42.1583 30.5,42.5C 29.8333,42.5 29.1667,42.5 28.5,42.5C 28.5,41.8333 28.5,41.1667 28.5,40.5C 29.209,39.596 30.209,39.2627 31.5,39.5 Z"/></g>
<g><path style="opacity:1" fill="#e9ad90" d="M 31.5,40.5 C 31.5,40.1667 31.5,39.8333 31.5,39.5C 32.1667,39.5 32.8333,39.5 33.5,39.5C 34.9418,40.8195 35.6085,42.4862 35.5,44.5C 35.6716,45.4916 35.3382,46.1583 34.5,46.5C 34.5,45.8333 34.5,45.1667 34.5,44.5C 34.2624,42.5956 33.2624,41.2623 31.5,40.5 Z"/></g>
<g><path style="opacity:0.871" fill="#dda789" d="M 37.5,38.5 C 38.2719,39.6935 39.2719,40.6935 40.5,41.5C 39.791,42.404 38.791,42.7373 37.5,42.5C 36.1667,41.1667 36.1667,39.8333 37.5,38.5 Z"/></g>
<g><path style="opacity:0.894" fill="#a46256" d="M 8.5,34.5 C 8.70381,37.5176 9.03714,40.5176 9.5,43.5C 9.16667,43.5 8.83333,43.5 8.5,43.5C 7.69354,42.2719 6.69354,41.2719 5.5,40.5C 7.06029,38.8439 8.06029,36.8439 8.5,34.5 Z"/></g>
<g><path style="opacity:1" fill="#b16957" d="M 19.5,39.5 C 20.1667,39.5 20.8333,39.5 21.5,39.5C 22.1667,39.5 22.5,39.8333 22.5,40.5C 22.5,41.5 22.5,42.5 22.5,43.5C 22.5,43.8333 22.5,44.1667 22.5,44.5C 22.1667,44.5 21.8333,44.5 21.5,44.5C 20.5,44.5 19.5,44.5 18.5,44.5C 18.5,43.5 18.5,42.5 18.5,41.5C 18.3284,40.5084 18.6618,39.8417 19.5,39.5 Z"/></g>
<g><path style="opacity:1" fill="#c98b77" d="M 22.5,40.5 C 23.1667,40.5 23.8333,40.5 24.5,40.5C 25.8333,41.8333 27.1667,41.8333 28.5,40.5C 28.5,41.1667 28.5,41.8333 28.5,42.5C 28.2172,43.2891 27.7172,43.9558 27,44.5C 25.6439,43.6198 24.1439,43.2865 22.5,43.5C 22.5,42.5 22.5,41.5 22.5,40.5 Z"/></g>
<g><path style="opacity:1" fill="#df997c" d="M 31.5,40.5 C 33.2624,41.2623 34.2624,42.5956 34.5,44.5C 33.0413,44.4326 31.7079,44.7659 30.5,45.5C 30.5,44.5 30.5,43.5 30.5,42.5C 31.3382,42.1583 31.6716,41.4916 31.5,40.5 Z"/></g>
<g><path style="opacity:1" fill="#ac6050" d="M 15.5,43.5 C 16.9063,43.9731 17.573,44.9731 17.5,46.5C 17.1667,46.5 16.8333,46.5 16.5,46.5C 14.7697,45.9744 13.4363,44.9744 12.5,43.5C 13.3478,42.375 14.3478,42.375 15.5,43.5 Z"/></g>
<g><path style="opacity:1" fill="#dda185" d="M 28.5,42.5 C 29.1667,42.5 29.8333,42.5 30.5,42.5C 30.5,43.5 30.5,44.5 30.5,45.5C 29.5,45.8333 28.8333,46.5 28.5,47.5C 26.8333,47.5 25.1667,47.5 23.5,47.5C 23.7373,46.209 23.404,45.209 22.5,44.5C 22.5,44.1667 22.5,43.8333 22.5,43.5C 24.1439,43.2865 25.6439,43.6198 27,44.5C 27.7172,43.9558 28.2172,43.2891 28.5,42.5 Z"/></g>
<g><path style="opacity:1" fill="#c1765f" d="M 15.5,41.5 C 16.5,41.5 17.5,41.5 18.5,41.5C 18.5,42.5 18.5,43.5 18.5,44.5C 19.5,44.5 20.5,44.5 21.5,44.5C 22.2341,45.7079 22.5674,47.0413 22.5,48.5C 20.8333,47.8333 19.1667,47.1667 17.5,46.5C 17.573,44.9731 16.9063,43.9731 15.5,43.5C 15.5,42.8333 15.5,42.1667 15.5,41.5 Z"/></g>
<g><path style="opacity:0.918" fill="#9c746d" d="M 11.5,43.5 C 11.8333,43.5 12.1667,43.5 12.5,43.5C 13.4363,44.9744 14.7697,45.9744 16.5,46.5C 16.5569,47.609 16.8902,48.609 17.5,49.5C 15.326,49.2503 13.6594,48.2503 12.5,46.5C 11.8902,45.609 11.5569,44.609 11.5,43.5 Z"/></g>
<g><path style="opacity:0.847" fill="#c88569" d="M 34.5,44.5 C 34.5,45.1667 34.5,45.8333 34.5,46.5C 34.1667,46.5 33.8333,46.5 33.5,46.5C 31.7839,46.6287 30.1172,46.962 28.5,47.5C 28.8333,46.5 29.5,45.8333 30.5,45.5C 31.7079,44.7659 33.0413,44.4326 34.5,44.5 Z"/></g>
<g><path style="opacity:0.376" fill="#a66954" d="M 33.5,46.5 C 32.9002,47.8999 31.9002,48.8999 30.5,49.5C 29.8333,49.5 29.1667,49.5 28.5,49.5C 28.1667,49.5 27.8333,49.5 27.5,49.5C 27.8333,48.8333 28.1667,48.1667 28.5,47.5C 30.1172,46.962 31.7839,46.6287 33.5,46.5 Z"/></g>
<g><path style="opacity:0.99" fill="#c47f65" d="M 21.5,44.5 C 21.8333,44.5 22.1667,44.5 22.5,44.5C 23.404,45.209 23.7373,46.209 23.5,47.5C 25.1667,47.5 26.8333,47.5 28.5,47.5C 28.1667,48.1667 27.8333,48.8333 27.5,49.5C 26.8333,49.8333 26.1667,50.1667 25.5,50.5C 25.0269,49.0937 24.0269,48.427 22.5,48.5C 22.5674,47.0413 22.2341,45.7079 21.5,44.5 Z"/></g>
<g><path style="opacity:0.763" fill="#915946" d="M 16.5,46.5 C 16.8333,46.5 17.1667,46.5 17.5,46.5C 19.1667,47.1667 20.8333,47.8333 22.5,48.5C 24.0269,48.427 25.0269,49.0937 25.5,50.5C 25.5,51.1667 25.1667,51.5 24.5,51.5C 23.0011,50.506 21.3344,50.506 19.5,51.5C 19.5,50.8333 19.1667,50.5 18.5,50.5C 18.5,49.8333 18.1667,49.5 17.5,49.5C 16.8902,48.609 16.5569,47.609 16.5,46.5 Z"/></g>
<g><path style="opacity:0.237" fill="#305233" d="M 18.5,50.5 C 19.1667,50.5 19.5,50.8333 19.5,51.5C 19.5,52.1667 19.5,52.8333 19.5,53.5C 18.8333,53.8333 18.1667,54.1667 17.5,54.5C 16.8333,54.1667 16.1667,53.8333 15.5,53.5C 15.8564,51.8102 16.8564,50.8102 18.5,50.5 Z"/></g>
<g><path style="opacity:0.494" fill="#618147" d="M 28.5,49.5 C 29.1667,49.5 29.8333,49.5 30.5,49.5C 31.1667,49.5 31.5,49.8333 31.5,50.5C 30.596,51.209 30.2627,52.209 30.5,53.5C 30.1667,53.5 29.8333,53.5 29.5,53.5C 28.8333,53.1667 28.1667,52.8333 27.5,52.5C 27.5569,51.391 27.8902,50.391 28.5,49.5 Z"/></g>
<g><path style="opacity:1" fill="#5b4837" d="M 24.5,51.5 C 23.3646,53.2132 21.698,53.8799 19.5,53.5C 19.5,52.8333 19.5,52.1667 19.5,51.5C 21.3344,50.506 23.0011,50.506 24.5,51.5 Z"/></g>
<g><path style="opacity:0.996" fill="#2e4727" d="M 15.5,53.5 C 16.1667,53.8333 16.8333,54.1667 17.5,54.5C 17.5,56.1667 17.5,57.8333 17.5,59.5C 16.1428,54.4005 14.8095,54.7339 13.5,60.5C 13.1667,60.5 12.8333,60.5 12.5,60.5C 12.5,59.5 12.5,58.5 12.5,57.5C 13.5116,56.1283 14.5116,54.795 15.5,53.5 Z"/></g>
<g><path style="opacity:1" fill="#edded0" d="M 27.5,52.5 C 27.6621,54.5273 27.4955,56.5273 27,58.5C 25.7012,58.0338 24.2012,58.0338 22.5,58.5C 22.5,57.8333 22.5,57.1667 22.5,56.5C 23.5,56.1667 24.1667,55.5 24.5,54.5C 24.9731,53.0937 25.9731,52.427 27.5,52.5 Z"/></g>
<g><path style="opacity:0.873" fill="#3a502a" d="M 17.5,59.5 C 17.5,59.8333 17.5,60.1667 17.5,60.5C 16.5,60.5 15.5,60.5 14.5,60.5C 14.1667,60.5 13.8333,60.5 13.5,60.5C 14.8095,54.7339 16.1428,54.4005 17.5,59.5 Z"/></g>
<g><path style="opacity:1" fill="#a89f8e" d="M 27.5,49.5 C 27.8333,49.5 28.1667,49.5 28.5,49.5C 27.8902,50.391 27.5569,51.391 27.5,52.5C 25.9731,52.427 24.9731,53.0937 24.5,54.5C 22.8333,54.5 21.1667,54.5 19.5,54.5C 19.5,56.5 19.5,58.5 19.5,60.5C 19.1667,60.5 18.8333,60.5 18.5,60.5C 18.1667,60.5 17.8333,60.5 17.5,60.5C 17.5,60.1667 17.5,59.8333 17.5,59.5C 17.5,57.8333 17.5,56.1667 17.5,54.5C 18.1667,54.1667 18.8333,53.8333 19.5,53.5C 21.698,53.8799 23.3646,53.2132 24.5,51.5C 25.1667,51.5 25.5,51.1667 25.5,50.5C 26.1667,50.1667 26.8333,49.8333 27.5,49.5 Z"/></g>
<g><path style="opacity:1" fill="#e0cdc0" d="M 24.5,54.5 C 24.1667,55.5 23.5,56.1667 22.5,56.5C 21.5655,57.5676 21.2322,58.901 21.5,60.5C 20.8333,60.5 20.1667,60.5 19.5,60.5C 19.5,58.5 19.5,56.5 19.5,54.5C 21.1667,54.5 22.8333,54.5 24.5,54.5 Z"/></g>
<g><path style="opacity:0.855" fill="#7b9e60" d="M 31.5,50.5 C 34.2411,52.9754 36.2411,55.9754 37.5,59.5C 36.8333,59.5 36.1667,59.5 35.5,59.5C 33.7875,56.7062 32.4541,53.7062 31.5,50.5 Z"/></g>
<g><path style="opacity:1" fill="#d2c8b5" d="M 27.5,52.5 C 28.1667,52.8333 28.8333,53.1667 29.5,53.5C 29.5,55.8333 29.5,58.1667 29.5,60.5C 29.1667,60.5 28.8333,60.5 28.5,60.5C 26.5,59.8333 24.5,59.1667 22.5,58.5C 24.2012,58.0338 25.7012,58.0338 27,58.5C 27.4955,56.5273 27.6621,54.5273 27.5,52.5 Z"/></g>
<g><path style="opacity:0.499" fill="#14100e" d="M 12.5,57.5 C 12.5,58.5 12.5,59.5 12.5,60.5C 11.8333,61.8333 11.1667,63.1667 10.5,64.5C 10.1667,64.5 9.83333,64.5 9.5,64.5C 8.90781,61.3695 9.90781,59.0361 12.5,57.5 Z"/></g>
<g><path style="opacity:1" fill="#ebd5c2" d="M 22.5,56.5 C 22.5,57.1667 22.5,57.8333 22.5,58.5C 24.5,59.1667 26.5,59.8333 28.5,60.5C 26.1667,60.5 23.8333,60.5 21.5,60.5C 21.2322,58.901 21.5655,57.5676 22.5,56.5 Z"/></g>
<g><path style="opacity:1" fill="#2d3f1e" d="M 29.5,53.5 C 29.8333,53.5 30.1667,53.5 30.5,53.5C 31.9313,54.7804 32.5979,56.4471 32.5,58.5C 32.3915,60.5138 33.0582,62.1805 34.5,63.5C 32.8007,63.4729 31.4674,62.8062 30.5,61.5C 30.5,60.8333 30.1667,60.5 29.5,60.5C 29.5,58.1667 29.5,55.8333 29.5,53.5 Z"/></g>
<g><path style="opacity:1" fill="#385327" d="M 32.5,58.5 C 33.2719,59.6935 34.2719,60.6935 35.5,61.5C 36.1098,62.391 36.4431,63.391 36.5,64.5C 35.5084,64.6716 34.8417,64.3382 34.5,63.5C 33.0582,62.1805 32.3915,60.5138 32.5,58.5 Z"/></g>
<g><path style="opacity:0.996" fill="#5f8544" d="M 31.5,50.5 C 32.4541,53.7062 33.7875,56.7062 35.5,59.5C 35.5,60.1667 35.5,60.8333 35.5,61.5C 34.2719,60.6935 33.2719,59.6935 32.5,58.5C 32.5979,56.4471 31.9313,54.7804 30.5,53.5C 30.2627,52.209 30.596,51.209 31.5,50.5 Z"/></g>
<g><path style="opacity:1" fill="#d09d7f" d="M 14.5,60.5 C 15.5,60.5 16.5,60.5 17.5,60.5C 17.8333,60.5 18.1667,60.5 18.5,60.5C 18.6107,61.1174 18.944,61.6174 19.5,62C 22.8168,62.4983 26.1501,62.665 29.5,62.5C 29.1583,63.3382 28.4916,63.6716 27.5,63.5C 24.5,63.5 21.5,63.5 18.5,63.5C 17.3684,62.6457 16.035,62.6457 14.5,63.5C 13.7611,63.631 13.0944,63.4643 12.5,63C 13.3805,62.2917 14.0472,61.4584 14.5,60.5 Z"/></g>
<g><path style="opacity:1" fill="#ebbfa4" d="M 18.5,60.5 C 18.8333,60.5 19.1667,60.5 19.5,60.5C 20.1667,60.5 20.8333,60.5 21.5,60.5C 23.8333,60.5 26.1667,60.5 28.5,60.5C 28.8333,60.5 29.1667,60.5 29.5,60.5C 30.1667,60.5 30.5,60.8333 30.5,61.5C 30.5,62.1667 30.1667,62.5 29.5,62.5C 26.1501,62.665 22.8168,62.4983 19.5,62C 18.944,61.6174 18.6107,61.1174 18.5,60.5 Z"/></g>
<g><path style="opacity:0.937" fill="#6f9554" d="M 35.5,59.5 C 36.1667,59.5 36.8333,59.5 37.5,59.5C 39.0395,61.8383 39.7062,64.5049 39.5,67.5C 38.5,66.8333 37.5,66.1667 36.5,65.5C 36.5,65.1667 36.5,64.8333 36.5,64.5C 36.4431,63.391 36.1098,62.391 35.5,61.5C 35.5,60.8333 35.5,60.1667 35.5,59.5 Z"/></g>
<g><path style="opacity:1" fill="#8d735a" d="M 12.5,60.5 C 12.8333,60.5 13.1667,60.5 13.5,60.5C 13.8333,60.5 14.1667,60.5 14.5,60.5C 14.0472,61.4584 13.3805,62.2917 12.5,63C 13.0944,63.4643 13.7611,63.631 14.5,63.5C 13.3285,64.3446 11.9952,65.0113 10.5,65.5C 10.5,65.1667 10.5,64.8333 10.5,64.5C 11.1667,63.1667 11.8333,61.8333 12.5,60.5 Z"/></g>
<g><path style="opacity:1" fill="#9c634d" d="M 18.5,63.5 C 21.5,63.5 24.5,63.5 27.5,63.5C 27.5,63.8333 27.5,64.1667 27.5,64.5C 27.1667,64.5 26.8333,64.5 26.5,64.5C 23.9039,65.2653 21.2372,65.5987 18.5,65.5C 18.5,65.1667 18.5,64.8333 18.5,64.5C 18.5,64.1667 18.5,63.8333 18.5,63.5 Z"/></g>
<g><path style="opacity:1" fill="#40562f" d="M 18.5,63.5 C 18.5,63.8333 18.5,64.1667 18.5,64.5C 17.8333,64.8333 17.1667,65.1667 16.5,65.5C 14.3093,66.2907 12.3093,66.2907 10.5,65.5C 11.9952,65.0113 13.3285,64.3446 14.5,63.5C 16.035,62.6457 17.3684,62.6457 18.5,63.5 Z"/></g>
<g><path style="opacity:1" fill="#3f522a" d="M 30.5,61.5 C 31.4674,62.8062 32.8007,63.4729 34.5,63.5C 34.8417,64.3382 35.5084,64.6716 36.5,64.5C 36.5,64.8333 36.5,65.1667 36.5,65.5C 33.3915,65.7359 30.3915,65.4025 27.5,64.5C 27.5,64.1667 27.5,63.8333 27.5,63.5C 28.4916,63.6716 29.1583,63.3382 29.5,62.5C 30.1667,62.5 30.5,62.1667 30.5,61.5 Z"/></g>
<g><path style="opacity:1" fill="#3d3429" d="M 26.5,64.5 C 26.5,64.8333 26.5,65.1667 26.5,65.5C 25.596,66.209 25.2627,67.209 25.5,68.5C 23.8863,66.9254 21.8863,66.2587 19.5,66.5C 18.8333,66.5 18.5,66.1667 18.5,65.5C 21.2372,65.5987 23.9039,65.2653 26.5,64.5 Z"/></g>
<g><path style="opacity:1" fill="#26371b" d="M 26.5,65.5 C 26.5,65.1667 26.5,64.8333 26.5,64.5C 26.8333,64.5 27.1667,64.5 27.5,64.5C 30.3915,65.4025 33.3915,65.7359 36.5,65.5C 37.5,66.1667 38.5,66.8333 39.5,67.5C 37.7354,68.4614 35.7354,68.7947 33.5,68.5C 32.1667,68.5 30.8333,68.5 29.5,68.5C 28.8333,67.1667 27.8333,66.1667 26.5,65.5 Z"/></g>
<g><path style="opacity:1" fill="#283e1d" d="M 9.5,64.5 C 9.83333,64.5 10.1667,64.5 10.5,64.5C 10.5,64.8333 10.5,65.1667 10.5,65.5C 12.3093,66.2907 14.3093,66.2907 16.5,65.5C 16.3893,66.1174 16.056,66.6174 15.5,67C 13.5273,67.4955 11.5273,67.6621 9.5,67.5C 9.5,66.5 9.5,65.5 9.5,64.5 Z"/></g>
<g><path style="opacity:0.529" fill="#172512" d="M 18.5,64.5 C 18.5,64.8333 18.5,65.1667 18.5,65.5C 18.5,66.1667 18.8333,66.5 19.5,66.5C 18.7095,67.4013 17.7095,68.0679 16.5,68.5C 15.5084,68.3284 14.8417,68.6618 14.5,69.5C 12.8333,69.5 11.1667,69.5 9.5,69.5C 9.5,68.8333 9.5,68.1667 9.5,67.5C 11.5273,67.6621 13.5273,67.4955 15.5,67C 16.056,66.6174 16.3893,66.1174 16.5,65.5C 17.1667,65.1667 17.8333,64.8333 18.5,64.5 Z"/></g>
<g><path style="opacity:1" fill="#162512" d="M 26.5,65.5 C 27.8333,66.1667 28.8333,67.1667 29.5,68.5C 28.1667,68.5 26.8333,68.5 25.5,68.5C 25.2627,67.209 25.596,66.209 26.5,65.5 Z"/></g>
<g><path style="opacity:1" fill="#6e6963" d="M 19.5,66.5 C 21.8863,66.2587 23.8863,66.9254 25.5,68.5C 26.8333,68.5 28.1667,68.5 29.5,68.5C 30.8333,68.5 32.1667,68.5 33.5,68.5C 33.5,68.8333 33.5,69.1667 33.5,69.5C 27.8333,69.5 22.1667,69.5 16.5,69.5C 16.5,69.1667 16.5,68.8333 16.5,68.5C 17.7095,68.0679 18.7095,67.4013 19.5,66.5 Z"/></g>
</svg>
